# xmcd
#
# Track frame offsets:
#	150
#	17306
#	34219
#	51393
#	69548
#	86884
#	105026
#	119552
#	136246
#	152733
#	169199
#	185926
#	208062
#	224796
#	242264
#	258878
#	276049
#	295466
#
# Disc length: 4221 seconds
#
# Revision: 5
# Processed by: cddbd v1.5.2PL0 Copyright (c) Steve Scherf et al.
# Submitted via: audiograbber 1.83.01
#
DISCID=0f107b12
DTITLE=Various Artist - Zoom Pop Box 2015 Disc 3
DYEAR=2015
DGENRE=Karaoke
TTITLE0=Jason Derulo - Cheyenne
TTITLE1=Jason Derulo - Want To Want Me
TTITLE2=Jess Glynne - Don't Be So Hard On Yourself
TTITLE3=Jess Glynne - Hold My Hand
TTITLE4=Jessie J - Masterpiece
TTITLE5=Jessie J - Sweet Talker
TTITLE6=John Newman - Come And Get It
TTITLE7=John Newman - Try
TTITLE8=John Newman and Charlie Williams - Tiring Game
TTITLE9=Justin Bieber - What Do You Mean
TTITLE10=Kelly Clarkson - Heartbeat Song
TTITLE11=Labrinth - Jealous
TTITLE12=Lawson - Roads
TTITLE13=Little Mix - Black Magic
TTITLE14=Lunchmoney Lewis - Bills
TTITLE15=Madonna - Hold Tight
TTITLE16=Madonna - Joan Of Arc
TTITLE17=Mark Ronson and Bruno Mars - Uptown Funk 
EXTD=
EXTT0=
EXTT1=
EXTT2=
EXTT3=
EXTT4=
EXTT5=
EXTT6=
EXTT7=
EXTT8=
EXTT9=
EXTT10=
EXTT11=
EXTT12=
EXTT13=
EXTT14=
EXTT15=
EXTT16=
EXTT17=
PLAYORDER=
